<?xml version="1.0" standalone="no"?>
<!DOCTYPE svg PUBLIC "-//W3C//DTD SVG 20010904//EN"
 "http://www.w3.org/TR/2001/REC-SVG-20010904/DTD/svg10.dtd">
<svg version="1.0" xmlns="http://www.w3.org/2000/svg"
 width="853.000000pt" height="149.000000pt" viewBox="0 0 853.000000 149.000000"
 preserveAspectRatio="xMidYMid meet">

<g transform="translate(0.000000,149.000000) scale(0.100000,-0.100000)"
fill="rgb(40,121,255)" stroke="none">
<path d="M7500 1336 c-80 -46 -145 -89 -145 -96 0 -13 269 -169 292 -170 17 0
303 160 303 170 0 7 -290 180 -302 180 -2 0 -69 -38 -148 -84z"/>
<path d="M1390 840 l0 -450 85 0 85 0 0 224 0 225 31 22 c17 12 50 24 74 27
39 4 48 1 75 -26 l30 -30 0 -221 0 -221 85 0 85 0 0 218 c0 257 -8 300 -69
355 -21 19 -55 40 -76 47 -52 17 -136 7 -190 -24 l-45 -25 0 165 0 164 -85 0
-85 0 0 -450z"/>
<path d="M2830 840 l0 -450 80 0 80 0 0 450 0 450 -80 0 -80 0 0 -450z"/>
<path d="M5050 840 l0 -450 85 0 85 0 0 450 0 450 -85 0 -85 0 0 -450z"/>
<path d="M5390 840 l0 -450 80 0 80 0 0 450 0 450 -80 0 -80 0 0 -450z"/>
<path d="M40 1249 c0 -5 59 -200 130 -432 113 -364 135 -426 159 -448 30 -28
107 -48 121 -33 4 5 26 67 48 139 22 72 66 211 97 310 74 236 65 213 75 195 4
-8 47 -141 94 -295 78 -250 91 -283 120 -311 34 -32 110 -55 125 -38 5 5 29
83 56 174 26 91 87 295 136 453 49 159 89 290 89 293 0 10 -167 3 -182 -8 -10
-8 -44 -115 -88 -278 -39 -146 -75 -273 -79 -284 -4 -12 -35 70 -96 260 -48
154 -95 287 -103 297 -11 12 -30 17 -72 17 -42 0 -61 -5 -72 -17 -15 -17 -188
-544 -188 -572 0 -34 -14 11 -89 283 -43 159 -85 292 -92 297 -20 13 -189 11
-189 -2z"/>
<path d="M7322 1008 l3 -182 138 -79 c76 -44 144 -76 152 -73 12 4 15 35 15
175 l0 170 -27 19 c-53 36 -260 152 -272 152 -8 0 -11 -46 -9 -182z"/>
<path d="M7808 1108 l-138 -80 0 -179 c0 -149 2 -179 14 -179 17 0 277 149
288 164 5 6 7 87 5 181 -2 142 -4 170 -17 172 -8 1 -77 -35 -152 -79z"/>
<path d="M2295 1011 c-90 -23 -163 -82 -199 -160 -30 -66 -30 -236 0 -302 27
-58 85 -116 143 -143 66 -30 216 -30 282 0 58 27 109 78 139 140 21 42 24 63
24 154 0 89 -3 112 -22 151 -30 60 -82 112 -140 139 -50 24 -174 35 -227 21z
m159 -142 c46 -36 60 -76 60 -169 0 -135 -39 -190 -134 -190 -95 0 -135 56
-135 190 0 96 18 145 63 172 39 25 113 23 146 -3z"/>
<path d="M3333 1006 c-134 -42 -211 -168 -200 -325 8 -129 61 -216 161 -269
46 -24 61 -27 151 -27 112 1 180 23 230 75 l26 28 -31 36 c-18 20 -38 36 -45
36 -7 0 -37 -11 -67 -25 -105 -49 -200 -26 -238 58 -37 80 -45 77 175 77 l195
0 11 27 c13 35 -3 137 -30 191 -54 106 -205 159 -338 118z m189 -145 c17 -19
28 -43 28 -61 l0 -30 -125 0 c-80 0 -125 4 -125 10 0 6 9 28 20 50 27 52 62
71 124 66 41 -3 55 -9 78 -35z"/>
<path d="M3970 1011 c-138 -45 -196 -170 -129 -280 24 -40 67 -66 151 -92 37
-12 79 -30 93 -41 31 -24 32 -62 3 -82 -32 -23 -115 -21 -156 4 -51 31 -77 26
-112 -22 l-31 -42 38 -23 c164 -100 392 -51 432 94 15 53 13 82 -8 129 -21 47
-60 74 -147 102 -115 37 -145 63 -124 102 24 44 72 50 152 20 29 -11 59 -20
65 -20 7 0 25 18 39 40 32 48 27 58 -49 90 -56 25 -173 36 -217 21z"/>
<path d="M4523 1001 c-55 -19 -133 -66 -133 -80 0 -4 10 -23 23 -42 29 -44 61
-47 126 -15 103 53 181 23 181 -68 l0 -44 -67 -7 c-142 -15 -252 -67 -279
-131 -35 -83 -3 -178 71 -214 59 -28 145 -27 211 4 28 13 55 29 58 35 10 16
36 14 36 -3 0 -30 30 -46 86 -46 l54 0 0 213 c0 120 -5 229 -11 252 -28 106
-112 165 -233 165 -41 -1 -93 -8 -123 -19z m197 -403 c0 -49 -3 -55 -33 -75
-87 -59 -183 -28 -163 53 9 36 77 63 184 73 8 1 12 -16 12 -51z"/>
<path d="M5893 1006 c-134 -42 -211 -168 -200 -325 8 -129 61 -217 161 -269
45 -24 62 -27 151 -26 112 0 179 21 230 74 l26 28 -31 36 c-18 20 -38 36 -45
36 -7 0 -37 -11 -67 -25 -105 -49 -200 -26 -238 58 -37 80 -45 77 175 77 l195
0 11 27 c13 35 3 114 -23 176 -50 116 -205 176 -345 133z m189 -145 c17 -19
28 -43 28 -61 l0 -30 -125 0 c-80 0 -125 4 -125 10 0 6 9 28 20 50 27 52 62
71 124 66 41 -3 55 -9 78 -35z"/>
<path d="M6645 1005 c-16 -9 -45 -32 -62 -53 l-33 -37 0 28 c0 56 -14 67 -85
67 l-65 0 0 -310 0 -310 85 0 85 0 0 199 0 200 34 35 c32 34 37 36 98 36 l65
0 7 38 c11 66 7 109 -10 116 -28 11 -88 6 -119 -9z"/>
<path d="M7112 708 c-78 -45 -141 -87 -139 -92 5 -14 279 -166 299 -166 24 0
309 160 303 170 -9 15 -285 170 -303 170 -9 0 -81 -37 -160 -82z"/>
<path d="M7843 708 c-79 -46 -141 -87 -140 -93 5 -14 278 -164 299 -165 24 0
298 152 298 166 0 14 -275 174 -298 174 -10 0 -81 -37 -159 -82z"/>
<path d="M6944 557 c-2 -7 -3 -89 -2 -182 l3 -170 144 -83 c82 -47 148 -79
153 -74 5 5 7 87 6 183 l-3 174 -140 82 c-77 45 -144 82 -148 83 -4 0 -10 -6
-13 -13z"/>
<path d="M7435 487 l-140 -83 -3 -174 c-1 -95 1 -177 6 -182 5 -5 71 27 153
74 l144 83 0 179 c0 111 -4 180 -10 182 -5 2 -73 -34 -150 -79z"/>
<path d="M7674 557 c-2 -7 -3 -89 -2 -182 l3 -170 144 -83 c82 -47 148 -79
153 -74 5 5 7 87 6 183 l-3 174 -140 82 c-77 45 -144 82 -148 83 -4 0 -10 -6
-13 -13z"/>
<path d="M8165 487 l-140 -83 -3 -174 c-1 -95 1 -177 6 -182 5 -5 71 27 153
74 l144 83 0 179 c0 111 -4 180 -10 182 -5 2 -73 -34 -150 -79z"/>
<path d="M4134 299 c-10 -17 13 -36 27 -22 12 12 4 33 -11 33 -5 0 -12 -5 -16
-11z"/>
<path d="M5190 200 c0 -91 3 -110 15 -110 12 0 15 19 15 110 0 91 -3 110 -15
110 -12 0 -15 -19 -15 -110z"/>
<path d="M5270 200 c0 -91 3 -110 15 -110 12 0 15 19 15 110 0 91 -3 110 -15
110 -12 0 -15 -19 -15 -110z"/>
<path d="M5430 201 l0 -108 43 -1 c63 -1 76 6 88 47 9 31 9 44 -3 67 -12 25
-19 29 -56 28 l-42 -1 0 39 c0 27 -4 38 -15 38 -12 0 -15 -19 -15 -109z m98 7
c16 -16 15 -60 -1 -82 -8 -11 -23 -17 -38 -14 -20 2 -25 9 -27 41 -5 57 33 88
66 55z"/>
<path d="M5924 299 c-10 -17 13 -36 27 -22 12 12 4 33 -11 33 -5 0 -12 -5 -16
-11z"/>
<path d="M2820 195 l0 -105 65 0 c75 0 89 17 18 22 -48 3 -48 3 -51 41 l-3 37
40 0 c23 0 41 5 41 10 0 6 -18 10 -40 10 -39 0 -40 1 -40 35 l0 35 50 0 c28 0
50 5 50 10 0 6 -28 10 -65 10 l-65 0 0 -105z"/>
<path d="M3000 163 c0 -89 18 -97 22 -10 3 59 4 62 31 65 l27 3 0 -65 c0 -51
3 -66 15 -66 10 0 15 16 17 63 3 59 4 62 31 65 l27 3 0 -65 c0 -52 3 -66 15
-66 12 0 15 14 15 63 0 36 -5 68 -12 75 -15 15 -64 16 -73 2 -5 -8 -11 -8 -19
-1 -7 6 -31 9 -54 8 l-42 -1 0 -73z"/>
<path d="M3250 138 c0 -81 3 -98 15 -98 10 0 15 10 15 28 0 26 3 28 30 24 43
-6 70 21 70 70 0 66 -12 78 -75 75 l-55 -2 0 -97z m101 58 c8 -16 8 -34 2 -53
-8 -22 -16 -28 -39 -28 -26 0 -29 3 -32 39 -4 52 3 66 33 66 17 0 29 -8 36
-24z"/>
<path d="M3436 218 c-22 -31 -20 -84 4 -108 26 -26 74 -26 100 0 26 26 27 90
2 113 -28 25 -87 22 -106 -5z m95 -25 c13 -36 -2 -77 -30 -81 -30 -5 -51 15
-51 48 0 46 10 60 41 60 23 0 32 -6 40 -27z"/>
<path d="M3596 218 c29 -91 43 -123 54 -123 7 0 20 21 29 47 9 26 19 49 22 52
3 3 13 -19 23 -49 9 -30 23 -55 30 -55 12 0 62 137 53 147 -12 11 -26 -10 -37
-57 -7 -27 -16 -48 -20 -45 -4 3 -13 27 -20 55 -16 66 -35 64 -56 -5 -10 -30
-21 -52 -24 -48 -4 5 -13 29 -20 56 -8 28 -18 47 -27 47 -10 0 -12 -6 -7 -22z"/>
<path d="M3856 218 c-22 -31 -20 -84 4 -108 24 -24 82 -27 101 -4 11 14 9 15
-24 9 -42 -8 -67 6 -67 36 0 16 8 19 50 19 43 0 50 3 50 19 0 50 -85 71 -114
29z m82 -10 c21 -21 13 -28 -28 -28 -38 0 -52 14 -33 33 11 11 48 8 61 -5z"/>
<path d="M4010 165 c0 -60 3 -75 15 -75 11 0 15 12 15 49 0 51 17 81 46 81 8
0 14 5 14 10 0 14 -33 13 -48 -2 -9 -9 -12 -9 -12 0 0 7 -7 12 -15 12 -12 0
-15 -15 -15 -75z"/>
<path d="M4130 165 c0 -60 3 -75 15 -75 12 0 15 15 15 75 0 60 -3 75 -15 75
-12 0 -15 -15 -15 -75z"/>
<path d="M4210 163 c0 -57 3 -73 15 -73 10 0 15 16 17 63 3 62 3 62 33 62 30
0 30 0 33 -63 2 -46 7 -62 17 -62 11 0 15 14 15 56 0 82 -9 94 -75 92 l-55 -2
0 -73z"/>
<path d="M4402 231 c-13 -8 -14 -13 -9 -88 1 -24 -1 -43 -5 -43 -16 0 -7 -40
11 -50 50 -26 115 -2 109 41 -2 20 -10 25 -45 30 -68 9 -68 19 0 33 21 5 29
14 34 36 3 17 11 30 17 31 20 2 -38 17 -69 18 -16 0 -36 -3 -43 -8z m68 -36
c0 -20 -5 -25 -24 -25 -14 0 -28 5 -31 10 -12 19 4 40 30 40 20 0 25 -5 25
-25z m18 -112 c-4 -20 -64 -31 -80 -15 -18 18 2 32 43 32 33 0 40 -3 37 -17z"/>
<path d="M4642 228 c-23 -23 -13 -47 26 -65 20 -10 37 -25 37 -33 0 -11 -10
-15 -37 -14 -39 1 -50 -9 -22 -20 46 -18 84 1 84 42 0 17 -9 27 -35 38 -47 19
-47 44 1 44 21 0 33 4 29 10 -9 14 -68 13 -83 -2z"/>
<path d="M4780 163 c0 -89 18 -97 22 -10 3 57 5 62 27 65 31 5 41 -12 41 -75
0 -29 5 -53 10 -53 6 0 10 22 10 49 0 64 7 81 35 81 28 0 35 -17 35 -81 0 -27
5 -49 10 -49 14 0 13 123 -2 138 -15 15 -64 16 -73 2 -5 -8 -11 -8 -19 -1 -7
6 -31 9 -54 8 l-42 -1 0 -73z"/>
<path d="M5043 233 c-29 -11 -10 -23 27 -17 38 6 40 5 40 -20 0 -22 -4 -26
-29 -26 -53 0 -79 -49 -39 -74 13 -8 26 -7 48 1 16 6 30 7 30 2 0 -5 5 -9 10
-9 14 0 13 123 -2 138 -12 12 -62 15 -85 5z m65 -95 c-4 -31 -58 -40 -58 -9 0
20 12 29 43 30 14 1 18 -5 15 -21z"/>
<path d="M5610 177 c0 -36 5 -68 12 -75 15 -15 61 -15 76 0 9 9 12 9 12 0 0
-7 5 -12 10 -12 6 0 10 32 10 75 0 87 -18 102 -22 19 -3 -60 -20 -83 -52 -71
-12 5 -16 20 -16 67 0 47 -3 60 -15 60 -12 0 -15 -14 -15 -63z"/>
<path d="M5792 228 c-23 -23 -13 -47 29 -68 48 -25 46 -45 -5 -44 -46 2 -43
-20 3 -24 68 -7 86 56 25 85 -41 20 -42 38 -4 39 14 0 27 5 30 10 8 14 -63 17
-78 2z"/>
<path d="M5930 165 c0 -43 4 -75 10 -75 6 0 10 32 10 75 0 43 -4 75 -10 75 -6
0 -10 -32 -10 -75z"/>
<path d="M6010 163 c0 -42 4 -73 10 -73 6 0 10 24 10 53 0 57 12 77 46 77 25
0 34 -23 34 -87 0 -24 5 -43 10 -43 16 0 12 125 -3 139 -8 6 -35 10 -60 9
l-47 -2 0 -73z"/>
<path d="M6204 232 c-37 -24 -40 -88 -7 -124 16 -18 57 -23 87 -12 30 11 16
23 -20 17 -29 -5 -40 -2 -50 12 -26 36 -17 45 42 45 53 0 55 1 48 23 -3 12
-11 28 -16 35 -11 13 -66 16 -84 4z m74 -34 c3 -15 -4 -18 -37 -18 -43 0 -50
7 -29 28 18 18 62 11 66 -10z"/>
<path d="M6352 228 c-23 -23 -13 -47 26 -65 20 -10 37 -25 37 -33 0 -11 -10
-15 -37 -14 -39 1 -50 -9 -22 -20 46 -18 84 1 84 42 0 17 -9 27 -35 38 -48 20
-48 48 0 42 22 -2 34 0 32 6 -5 16 -70 19 -85 4z"/>
<path d="M6492 228 c-23 -23 -13 -47 26 -65 20 -10 37 -25 37 -33 0 -11 -10
-15 -37 -14 -39 1 -50 -9 -22 -20 46 -18 84 1 84 42 0 17 -9 27 -35 38 -47 19
-47 44 1 44 21 0 33 4 29 10 -9 14 -68 13 -83 -2z"/>
</g>
</svg>
