<?xml version="1.0" standalone="no"?>
<!DOCTYPE svg PUBLIC "-//W3C//DTD SVG 20010904//EN"
 "http://www.w3.org/TR/2001/REC-SVG-20010904/DTD/svg10.dtd">
<svg version="1.0" xmlns="http://www.w3.org/2000/svg"
 width="190.000000pt" height="60.000000pt" viewBox="0 0 190.000000 60.000000"
 preserveAspectRatio="xMidYMid meet">

<g transform="translate(0.000000,60.000000) scale(0.100000,-0.100000)"
fill="#000000" stroke="none">
<path d="M1618 452 c-16 -10 -28 -20 -28 -23 0 -3 16 -13 36 -22 35 -17 37
-17 71 4 l36 22 -34 18 c-41 22 -46 22 -81 1z"/>
<path d="M55 363 c46 -153 62 -167 89 -72 9 34 19 59 21 57 3 -3 13 -29 24
-59 26 -78 42 -74 68 13 12 40 25 81 28 91 5 13 2 17 -13 17 -16 0 -23 -11
-33 -50 -7 -27 -16 -50 -19 -50 -4 0 -13 21 -21 47 -22 69 -42 68 -66 -4 l-20
-58 -17 58 c-13 44 -21 57 -36 57 -18 0 -18 -2 -5 -47z"/>
<path d="M310 325 c0 -67 3 -85 14 -85 11 0 16 14 18 48 3 39 6 47 23 47 17 0
20 -8 23 -47 2 -34 7 -48 18 -48 10 0 14 13 14 48 0 55 -12 72 -52 72 -23 0
-28 4 -28 25 0 16 -6 25 -15 25 -12 0 -15 -16 -15 -85z"/>
<path d="M600 325 c0 -69 3 -85 15 -85 12 0 15 16 15 85 0 69 -3 85 -15 85
-12 0 -15 -16 -15 -85z"/>
<path d="M1040 325 c0 -78 2 -85 20 -85 18 0 20 7 20 85 0 78 -2 85 -20 85
-18 0 -20 -7 -20 -85z"/>
<path d="M1110 325 c0 -69 3 -85 15 -85 12 0 15 16 15 85 0 69 -3 85 -15 85
-12 0 -15 -16 -15 -85z"/>
<path d="M1580 366 c0 -44 0 -43 63 -74 4 -2 7 16 7 40 0 41 -3 46 -35 61
l-35 17 0 -44z"/>
<path d="M1698 392 c-24 -14 -28 -23 -28 -60 l0 -44 33 19 c27 16 32 26 35 61
3 47 -1 49 -40 24z"/>
<path d="M468 349 c-26 -15 -25 -85 1 -99 49 -25 101 1 101 52 0 47 -57 73
-102 47z m62 -29 c14 -26 -4 -63 -28 -58 -18 3 -28 39 -18 64 8 20 34 17 46
-6z"/>
<path d="M676 344 c-21 -20 -20 -68 0 -89 20 -19 85 -17 92 4 4 11 -2 12 -23
7 -26 -7 -55 6 -55 25 0 5 18 9 40 9 32 0 40 4 40 18 0 41 -63 58 -94 26z m62
-21 c2 -8 -6 -13 -22 -13 -19 0 -24 4 -19 15 6 18 34 16 41 -2z"/>
<path d="M807 354 c-16 -16 -6 -51 18 -62 32 -15 32 -34 0 -30 -13 2 -25 -1
-27 -7 -2 -5 14 -11 34 -13 28 -2 39 1 47 15 11 22 5 36 -26 52 -32 16 -29 35
3 27 19 -5 25 -3 22 6 -5 14 -59 23 -71 12z"/>
<path d="M923 353 c-25 -9 -13 -23 18 -21 41 4 49 -18 10 -27 -36 -8 -54 -27
-45 -49 4 -11 19 -15 55 -14 l49 1 0 46 c0 26 -5 52 -12 59 -12 12 -52 15 -75
5z m55 -75 c-7 -19 -38 -22 -38 -4 0 10 9 16 21 16 12 0 19 -5 17 -12z"/>
<path d="M1187 342 c-21 -23 -22 -51 -1 -80 12 -18 24 -22 52 -20 46 4 56 27
10 25 -23 -2 -33 3 -36 16 -3 14 4 17 37 17 45 0 48 5 25 38 -19 27 -64 29
-87 4z m67 -17 c4 -11 -1 -15 -19 -15 -24 0 -32 10 -18 23 11 12 31 8 37 -8z"/>
<path d="M1310 299 c0 -52 2 -59 20 -59 17 0 20 7 20 45 0 38 3 45 20 45 11 0
20 6 20 14 0 11 -12 15 -40 14 l-40 0 0 -59z"/>
<path d="M1521 291 l-33 -18 36 -21 c35 -21 38 -21 71 -5 19 9 35 19 35 23 0
7 -55 40 -67 40 -4 -1 -23 -9 -42 -19z"/>
<path d="M1707 291 c-29 -19 -27 -25 21 -50 19 -10 29 -9 59 10 l36 22 -34 18
c-42 22 -47 22 -82 0z"/>
<path d="M1482 208 c3 -35 8 -45 36 -61 l32 -19 0 44 c0 38 -4 46 -29 61 -40
24 -43 22 -39 -25z"/>
<path d="M1598 232 c-24 -14 -28 -24 -28 -60 0 -24 3 -42 8 -40 62 31 62 30
62 75 0 47 -2 49 -42 25z"/>
<path d="M1670 207 c0 -45 0 -44 63 -75 4 -2 7 16 7 41 0 45 0 44 -62 75 -5 2
-8 -16 -8 -41z"/>
<path d="M1788 232 c-24 -14 -28 -23 -28 -60 l0 -44 33 19 c27 16 32 26 35 61
3 47 -1 49 -40 24z"/>
<path d="M232 170 c0 -19 2 -27 5 -17 2 9 2 25 0 35 -3 9 -5 1 -5 -18z"/>
<path d="M1012 170 c0 -19 2 -27 5 -17 2 9 2 25 0 35 -3 9 -5 1 -5 -18z"/>
<path d="M282 160 c0 -14 2 -19 5 -12 2 6 2 18 0 25 -3 6 -5 1 -5 -13z"/>
<path d="M441 164 c0 -11 3 -14 6 -6 3 7 2 16 -1 19 -3 4 -6 -2 -5 -13z"/>
<path d="M480 165 c-7 -9 -11 -17 -9 -20 3 -2 10 5 17 15 14 24 10 26 -8 5z"/>
<path d="M622 160 c0 -14 2 -19 5 -12 2 6 2 18 0 25 -3 6 -5 1 -5 -13z"/>
<path d="M842 160 c0 -14 2 -19 5 -12 2 6 2 18 0 25 -3 6 -5 1 -5 -13z"/>
<path d="M1037 161 c-4 -17 -3 -21 5 -13 5 5 8 16 6 23 -3 8 -7 3 -11 -10z"/>
<path d="M1182 160 c0 -14 2 -19 5 -12 2 6 2 18 0 25 -3 6 -5 1 -5 -13z"/>
<path d="M1212 160 c0 -14 2 -19 5 -12 2 6 2 18 0 25 -3 6 -5 1 -5 -13z"/>
<path d="M505 159 c-4 -6 -5 -12 -2 -15 2 -3 7 2 10 11 7 17 1 20 -8 4z"/>
</g>
</svg>
